<svg width="539" height="538" viewBox="0 0 539 538" fill="none" xmlns="http://www.w3.org/2000/svg">
<path fill-rule="evenodd" clip-rule="evenodd" d="M420.127 278.931C421.067 394.726 370.416 479.316 273.58 484.119C203.001 487.62 245.222 376.882 156.765 303.357C100.145 256.295 62.7734 134.014 202.322 102.396C341.87 70.7798 419.187 163.136 420.127 278.931Z" fill="#CEDCFF"/>
<path d="M134.369 447.073C125.585 430.878 127.02 411.282 128.833 392.949C133.005 350.777 139.427 305.364 168.967 274.978C176.78 266.941 186.316 260.127 197.26 257.707C205.74 255.833 213.911 252.561 221.342 248.064C223.133 237.575 213.263 229.316 206.368 221.211C198.647 212.135 193.829 200.625 192.785 188.755C192.167 181.728 190.692 172.154 183.644 171.855C177.851 171.608 173.491 164.619 175.815 159.308C178.141 153.996 186.235 152.46 190.346 156.549C184.482 134.569 196.868 109.208 217.808 100.318C214.394 95.4355 221.846 89.5835 227.763 90.2829C233.68 90.9823 239.407 94.5568 245.217 93.2362C243.226 89.7298 246.416 85.0722 250.346 84.1741C254.277 83.276 258.311 84.9825 261.837 86.9387C284.468 99.4942 299.424 124.815 299.495 150.697C300.081 145.972 307.17 144.355 310.637 147.616C314.104 150.877 313.939 156.715 311.478 160.79C309.015 164.863 304.819 167.538 300.665 169.863C300.77 187.026 294.243 204.146 282.738 216.883C274.367 226.151 262.506 235.982 265.253 248.164C269.707 247.179 274.211 252.317 272.653 256.604C291.747 255.013 309.566 266.537 323.093 280.107C342.924 299.997 357.177 325.392 363.827 352.681C364.988 357.448 371.77 358.748 375.966 356.204C380.162 353.661 382.318 348.851 384.23 344.333L422 255.076C419.566 243.051 421.535 230.623 423.509 218.514L430.056 178.327C430.65 174.679 433.202 169.866 436.57 171.387C437.734 171.912 438.384 173.048 438.794 174.3C438.985 174.88 439.123 175.485 439.239 176.066C441.281 186.37 441.934 196.95 441.174 207.427L454.248 185.061C456.365 181.442 460.749 177.437 464.021 178.935C465.252 179.176 466.086 180.404 466.262 181.655C466.728 183.357 466.333 185.403 465.8 187.169C463.415 195.075 459.527 202.525 454.406 209.003C461.311 211.358 469.309 214.934 470.518 222.129C469.8 235.173 460.186 250.148 453.098 257.922C454.724 256.94 455.788 259.861 455.464 261.733C447.689 306.715 428.744 349.724 400.801 385.823C392.555 396.476 382.978 404.72 367.956 406.207C347.483 408.232 334.06 378.035 322.943 378.842C322.943 378.842 312.54 432.552 305.008 439.725C297.476 446.899 247.98 461.963 233.064 456.941C218.15 451.92 203.231 465.348 183.644 464.002C163.345 462.607 134.369 447.073 134.369 447.073Z" fill="white"/>
<path d="M445.437 267.644C445.259 267.407 445.138 267.127 445.087 266.836C444.891 265.735 445.877 264.583 446.995 264.606C448.112 264.629 449.051 265.819 448.811 266.911C448.571 268.003 447.221 268.692 446.197 268.245C445.897 268.114 445.632 267.905 445.437 267.644Z" fill="#00160A"/>
<path d="M262.991 152.791C262.231 152.619 261.861 151.666 262.071 150.916C262.281 150.166 262.899 149.604 263.535 149.156C267.871 146.099 274.467 146.89 277.957 150.885C278.236 151.203 278.509 151.577 278.495 151.999C278.481 152.422 278.019 152.831 277.645 152.636C275.679 151.61 273.676 150.573 271.496 150.177C269.315 149.781 266.889 150.12 265.229 151.588C264.567 152.174 263.853 152.985 262.991 152.791Z" fill="#00160A"/>
<path d="M225.767 152.643C225.53 153.375 224.576 153.643 223.834 153.436C223.092 153.229 222.496 152.694 221.867 152.249C219.8 150.786 217.179 150.228 214.652 150.392C212.126 150.555 209.682 151.402 207.418 152.537C206.9 152.797 206.282 152.193 206.314 151.614C206.346 151.035 206.781 150.564 207.221 150.185C209.575 148.158 212.775 147.232 215.879 147.392C218.982 147.552 221.981 148.743 224.536 150.51C225.263 151.012 226.04 151.803 225.767 152.643Z" fill="black"/>
<path d="M446.504 275.822C446.24 276.174 445.864 276.421 445.481 276.638C445.085 276.863 444.648 277.068 444.194 277.033C443.59 276.986 443.085 276.511 442.836 275.959C442.224 274.599 443.265 272.739 444.755 272.686C446.247 272.634 447.397 274.628 446.504 275.822Z" fill="#00160A"/>
<path d="M313.817 332.538C314.541 332.87 314.025 334.04 313.286 334.338C312.548 334.637 311.618 334.647 311.136 335.282C310.793 335.733 310.808 336.353 310.841 336.919C310.911 338.076 310.984 339.303 310.433 340.322C309.882 341.342 308.446 341.97 307.527 341.264C306.683 340.616 306.758 339.359 306.729 338.296C306.7 337.232 306.165 335.901 305.103 335.949C299.901 336.188 294.699 336.425 289.496 336.663C288.837 336.693 288.086 336.688 287.637 336.205C287.022 335.543 287.439 334.373 288.216 333.911C288.994 333.449 289.958 333.487 290.861 333.539C294.684 333.76 298.506 333.981 302.328 334.202C302.922 334.236 303.545 334.265 304.082 334.01C304.619 333.755 305.023 333.115 304.806 332.561C304.222 331.078 304.997 329.201 306.458 328.563C306.965 328.341 307.195 327.756 307.321 327.217C307.446 326.678 307.537 326.092 307.92 325.693C308.304 325.294 309.111 325.269 309.312 325.784C309.777 326.973 310.915 327.741 311.714 328.737C312.514 329.732 312.884 331.386 311.872 332.163C311.928 332.893 313.152 332.233 313.817 332.538Z" fill="#00160A"/>
<path d="M212.078 198.267C211.352 198.223 211.051 197.059 211.663 196.668C212.435 196.614 212.774 197.934 212.072 198.258L212.078 198.267Z" fill="#FFB61D"/>
<path d="M270.105 180.056C269.896 179.681 270.114 179.139 270.524 179.012C270.935 178.885 271.421 179.209 271.461 179.637C271.347 180.193 270.536 180.446 270.126 180.052L270.105 180.056Z" fill="#FFB61D"/>
<path d="M267.67 172.888C267.364 173.495 266.255 173.326 266.143 172.655C266.367 172.349 266.689 172.117 267.05 172C267.355 172.225 267.59 172.544 267.714 172.902L267.67 172.888Z" fill="#FFB61D"/>
<path d="M252.821 199.928C253.276 199.898 253.735 200.17 253.927 200.584C253.773 201.052 253.192 201.376 252.757 201.147C252.32 200.917 252.363 200.113 252.846 200.02L252.821 199.928Z" fill="#FFB61D"/>
<path d="M266.446 200.606C266.67 200.046 267.712 200.26 267.698 200.862C267.384 201.174 266.976 201.39 266.542 201.475C266.192 201.356 266.105 200.804 266.4 200.582L266.446 200.606Z" fill="#FFB61D"/>
<path d="M242.992 175.361C242.533 175.363 242.195 175.953 242.427 176.35C242.658 176.747 243.338 176.744 243.566 176.345C243.794 175.946 243.451 175.359 242.992 175.361Z" fill="#FFB61D"/>
<path d="M215.301 182.359C214.93 182.081 214.301 182.351 214.246 182.81C214.191 183.269 214.74 183.68 215.164 183.497C215.59 183.316 215.671 182.636 215.301 182.359Z" fill="#FFB61D"/>
<path d="M277.188 183.462C276.746 183.606 276.244 183.112 276.376 182.665C276.509 182.219 277.189 182.074 277.498 182.422C277.807 182.771 277.591 183.421 277.137 183.523L277.188 183.462Z" fill="#FFB61D"/>
<path d="M240.355 197.12C240.183 196.69 239.505 196.591 239.218 196.954C238.932 197.317 239.185 197.954 239.643 198.021C240.101 198.087 240.525 197.55 240.355 197.12Z" fill="#FFB61D"/>
<path d="M239.631 208.48C239.31 208.574 239.061 208.182 239.006 207.852C239.323 207.251 240.423 207.418 240.546 208.087C240.352 208.38 239.977 208.542 239.63 208.482L239.631 208.48Z" fill="#FFB61D"/>
<path d="M244.022 207.942C243.523 208.065 242.821 207.821 242.871 207.31C243.169 207.003 243.634 206.782 244.02 206.963C244.408 207.144 244.429 207.856 244.007 207.926L244.022 207.942Z" fill="#FFB61D"/>
<path d="M266.54 207.707C266.334 207.556 266.193 207.319 266.159 207.065C266.374 206.756 266.695 206.522 267.055 206.412C267.268 206.626 267.481 206.841 267.693 207.056C267.458 207.46 267.006 207.727 266.54 207.738L266.54 207.707Z" fill="#FFB61D"/>
<path d="M246.867 176.65C246.503 177.145 245.554 176.904 245.47 176.295C245.78 175.636 247.014 175.93 246.994 176.658L246.867 176.65Z" fill="#FFB61D"/>
<path d="M256.97 200.971C256.558 201.368 255.723 200.953 255.79 200.385C255.858 199.817 256.767 199.609 257.074 200.092C256.847 200.258 256.755 200.586 256.861 200.847L256.97 200.971Z" fill="#FFB61D"/>
<path d="M231.826 175.548C232.268 175.403 232.77 175.898 232.637 176.344C232.504 176.79 231.824 176.936 231.515 176.587C231.206 176.239 231.423 175.588 231.877 175.486L231.826 175.548Z" fill="#FFB61D"/>
<path d="M242.622 190.001C243.055 189.639 243.845 189.954 243.91 190.515C243.613 190.786 243.208 191.008 242.823 190.892C242.439 190.776 242.256 190.166 242.606 189.969L242.622 190.001Z" fill="#FFB61D"/>
<path d="M252.471 193.627C252.769 193.022 253.872 193.181 253.986 193.846C253.655 194.45 252.552 194.288 252.41 193.614L252.471 193.627Z" fill="#FFB61D"/>
<path d="M253.08 197.098C253.384 196.649 254.252 196.94 254.224 197.482C254.027 197.795 253.709 198.031 253.351 198.128C252.995 197.937 252.85 197.433 253.049 197.082L253.08 197.098Z" fill="#FFB61D"/>
<path d="M267.445 176.011C267.162 175.641 266.477 175.73 266.298 176.161C266.12 176.592 266.539 177.14 267.002 177.079C267.465 177.019 267.729 176.381 267.445 176.011Z" fill="#FFB61D"/>
<path d="M260.083 210.316C260.17 209.913 260.881 210.108 260.924 210.519C260.969 210.929 260.637 211.273 260.331 211.551C260.099 211.402 259.854 211.237 259.756 210.98C259.658 210.723 259.805 210.362 260.079 210.354L260.083 210.316Z" fill="#FFB61D"/>
<path d="M225.865 172.539C225.693 172.109 225.015 172.01 224.728 172.373C224.442 172.736 224.695 173.373 225.153 173.44C225.611 173.506 226.035 172.968 225.865 172.539Z" fill="#FFB61D"/>
<path d="M243.477 210.317C243.243 209.945 242.592 209.969 242.386 210.358C242.181 210.748 242.528 211.298 242.968 211.282C243.407 211.265 243.711 210.689 243.477 210.317Z" fill="#FFB61D"/>
<path d="M214.647 196.463C214.894 196.184 215.4 196.523 215.389 196.897C215.378 197.27 215.077 197.562 214.798 197.81C214.197 197.714 214.095 196.684 214.666 196.473L214.647 196.463Z" fill="#FFB61D"/>
<path d="M246.879 204.35C246.624 204.508 246.37 204.665 246.116 204.823C245.65 204.652 245.596 203.879 246.032 203.644C246.469 203.41 247.083 203.881 246.969 204.364L246.879 204.35Z" fill="#FFB61D"/>
<path d="M276.547 196.829C276.405 196.389 277.265 196.247 277.434 196.677C277.604 197.107 277.262 197.573 276.88 197.834C276.503 197.667 276.259 197.242 276.304 196.832L276.547 196.829Z" fill="#FFB61D"/>
<path d="M266.153 197.231C266.433 196.828 267.044 196.704 267.458 196.965C267.567 197.569 266.803 198.122 266.263 197.833C266.21 197.635 266.157 197.437 266.104 197.239L266.153 197.231Z" fill="#FFB61D"/>
<path d="M225.099 193.143C225.54 192.998 226.042 193.493 225.909 193.939C225.776 194.385 225.096 194.531 224.788 194.182C224.479 193.834 224.695 193.183 225.149 193.081L225.099 193.143Z" fill="#FFB61D"/>
<path d="M273.115 169.544C273.12 169.156 273.525 168.824 273.906 168.896C274.288 168.968 274.544 169.423 274.409 169.786C274.007 170.091 273.363 169.997 273.065 169.591L273.115 169.544Z" fill="#FFB61D"/>
<path d="M263.302 189.982C263.675 189.683 264.341 190.022 264.318 190.499C263.99 191.009 263.116 191.009 262.788 190.5C262.96 190.329 263.132 190.156 263.304 189.984L263.302 189.982Z" fill="#FFB61D"/>
<path d="M220.985 200.196C221.361 199.797 222.109 199.866 222.407 200.325C222.181 200.637 221.884 200.958 221.498 200.976C221.112 200.995 220.747 200.493 221.014 200.214L220.985 200.196Z" fill="#FFB61D"/>
<path d="M277.276 204.213C277.122 204.419 276.887 204.56 276.634 204.599C276.173 204.336 276.175 203.516 276.669 203.326C277.164 203.135 277.698 203.903 277.302 204.255L277.276 204.213Z" fill="#FFB61D"/>
<path d="M215.102 204.423C215.463 204.171 215.409 203.521 215.01 203.334C214.612 203.147 214.076 203.519 214.113 203.958C214.15 204.396 214.74 204.674 215.102 204.423Z" fill="#FFB61D"/>
<path d="M277.074 191.057C276.712 191.426 276.102 190.659 276.452 190.279C276.802 189.899 277.48 190.093 277.792 190.505C277.577 190.72 277.362 190.934 277.147 191.149L277.074 191.057Z" fill="#FFB61D"/>
<path d="M211.082 173.417C210.983 172.79 211.999 172.38 212.363 172.9C212.06 173.298 211.758 173.695 211.455 174.092C211.235 173.939 211.082 173.692 211.042 173.427L211.082 173.417Z" fill="#FFB61D"/>
<path d="M214.974 191.057C214.612 191.426 214.003 190.659 214.353 190.279C214.702 189.899 215.38 190.093 215.692 190.505C215.478 190.72 215.262 190.934 215.047 191.149L214.974 191.057Z" fill="#FFB61D"/>
<path d="M270.087 173.123C269.778 172.829 269.838 172.245 270.201 172.019C270.563 171.793 271.114 171.998 271.241 172.405C271.062 172.816 270.605 173.087 270.158 173.049L270.087 173.123Z" fill="#FFB61D"/>
<path d="M224.511 176.287C224.796 175.777 225.651 175.747 225.971 176.237C225.87 176.952 224.59 176.99 224.446 176.282L224.511 176.287Z" fill="#FFB61D"/>
<path d="M250.569 179.241C250.577 179.607 250.45 179.972 250.219 180.254C249.818 180.48 249.28 179.975 249.419 179.536C249.558 179.096 250.179 178.939 250.562 179.196L250.569 179.241Z" fill="#FFB61D"/>
<path d="M240.017 203.868C239.887 203.453 239.259 203.312 238.965 203.632C238.671 203.951 238.862 204.566 239.287 204.66C239.711 204.756 240.146 204.282 240.017 203.868Z" fill="#FFB61D"/>
<path d="M253.544 207.287C253.731 207.778 253.36 208.395 252.839 208.461C252.495 208.316 252.334 207.848 252.516 207.521C252.697 207.194 253.18 207.084 253.485 207.299L253.544 207.287Z" fill="#FFB61D"/>
<path d="M231.45 210.941C231.45 210.47 231.728 210.01 232.146 209.791C232.447 210.093 232.663 210.558 232.479 210.943C232.294 211.329 231.581 211.34 231.519 210.918L231.45 210.941Z" fill="#FFB61D"/>
<path d="M270.235 207.024C270.596 206.654 271.206 207.421 270.856 207.802C270.506 208.182 269.829 207.987 269.517 207.576C269.731 207.362 269.946 207.147 270.161 206.932L270.235 207.024Z" fill="#FFB61D"/>
<path d="M239.443 175.973C239.805 175.605 240.415 176.372 240.065 176.752C239.715 177.132 239.038 176.938 238.725 176.526C238.94 176.311 239.155 176.097 239.37 175.882L239.443 175.973Z" fill="#FFB61D"/>
<path d="M218.162 197.617C217.898 197.331 218.258 196.828 218.647 196.841C219.036 196.853 219.341 197.174 219.557 197.498C219.249 197.946 218.518 198.014 218.134 197.63L218.162 197.617Z" fill="#FFB61D"/>
<path d="M225.648 185.689C226.017 185.659 226.165 186.237 225.912 186.507C225.659 186.776 225.239 186.789 224.873 186.745C224.538 186.29 225.121 185.538 225.646 185.748L225.648 185.689Z" fill="#FFB61D"/>
<path d="M243.766 218.055C243.383 218.545 242.434 218.293 242.343 217.677C242.671 217.095 243.77 217.389 243.764 218.057L243.766 218.055Z" fill="#FFB61D"/>
<path d="M224.711 197.814C224.505 197.413 224.776 196.841 225.221 196.774C225.667 196.707 226.098 197.218 225.931 197.637C225.764 198.055 225.061 198.104 224.86 197.701L224.711 197.814Z" fill="#FFB61D"/>
<path d="M239.372 211.326C239.049 211.43 238.817 211.017 238.73 210.689C239.061 210.18 239.933 210.174 240.27 210.68C240.05 210.986 239.731 211.222 239.373 211.342L239.372 211.326Z" fill="#FFB61D"/>
<path d="M242.295 183.254C242.419 182.588 243.497 182.398 243.841 182.982C243.68 183.604 242.703 183.794 242.32 183.276L242.295 183.254Z" fill="#FFB61D"/>
<path d="M277.277 193.776C277.147 193.362 276.519 193.22 276.225 193.54C275.93 193.859 276.122 194.474 276.546 194.569C276.97 194.664 277.406 194.191 277.277 193.776Z" fill="#FFB61D"/>
<path d="M247.263 197.749C246.89 198.048 246.225 197.709 246.248 197.231C246.575 196.721 247.449 196.721 247.778 197.231C247.606 197.402 247.433 197.574 247.262 197.747L247.263 197.749Z" fill="#FFB61D"/>
<path d="M239.885 217.028C240.208 216.925 240.441 217.337 240.527 217.665C240.196 218.175 239.325 218.18 238.988 217.674C239.208 217.368 239.526 217.132 239.884 217.012L239.885 217.028Z" fill="#FFB61D"/>
<path d="M281.157 169.025C281.327 169.195 281.497 169.365 281.666 169.534C281.365 169.994 280.589 170.154 280.286 169.696C279.983 169.238 280.835 168.588 281.084 169.077L281.157 169.025Z" fill="#FFB61D"/>
<path d="M266.558 180.259C266.892 180.551 267.514 180.34 267.6 179.906C267.687 179.47 267.194 179.037 266.773 179.179C266.353 179.322 266.225 179.966 266.558 180.259Z" fill="#FFB61D"/>
<path d="M245.857 207.723C245.99 207.413 246.478 207.342 246.695 207.601C246.938 207.993 246.717 208.624 246.259 208.677C245.802 208.729 245.488 207.987 245.89 207.761L245.857 207.723Z" fill="#FFB61D"/>
<path d="M225.137 200.21C225.46 200.107 225.693 200.519 225.779 200.848C225.562 201.156 225.242 201.39 224.883 201.504C224.678 201.345 224.537 201.107 224.493 200.852C224.708 200.636 224.924 200.42 225.139 200.205L225.137 200.21Z" fill="#FFB61D"/>
<path d="M271.289 190.613C271.379 191.217 270.496 191.68 270.051 191.263C269.861 190.659 270.859 190.1 271.196 190.636L271.289 190.613Z" fill="#FFB61D"/>
<path d="M236.258 190.124C236.554 190.305 236.718 190.679 236.65 191.019C236.282 191.161 235.878 191.207 235.487 191.149C235.366 190.96 235.32 190.724 235.361 190.502C235.662 190.372 235.963 190.243 236.265 190.113L236.258 190.124Z" fill="#FFB61D"/>
<path d="M253.36 203.817C253.494 204.093 253.526 204.418 253.448 204.715C253.097 205.021 252.438 204.738 252.417 204.272C252.397 203.807 253.029 203.467 253.405 203.741L253.36 203.817Z" fill="#FFB61D"/>
<path d="M274.67 197.721C274.26 198.094 273.472 197.797 273.409 197.247C273.546 196.929 273.952 196.758 274.275 196.884C274.597 197.009 274.782 197.411 274.667 197.737L274.67 197.721Z" fill="#FFB61D"/>
<path d="M240.013 172.902C240.249 173.061 240.355 173.39 240.255 173.657C239.899 173.994 239.184 173.881 239.061 173.406C238.939 172.932 239.727 172.529 239.967 172.957L240.013 172.902Z" fill="#FFB61D"/>
<path d="M215.209 193.99C215.232 193.554 214.69 193.204 214.302 193.402C213.914 193.6 213.881 194.244 214.246 194.481C214.612 194.719 215.186 194.425 215.209 193.99Z" fill="#FFB61D"/>
<path d="M249.708 191.495C249.28 191.359 249.248 190.649 249.644 190.436C250.04 190.224 250.59 190.568 250.62 191.016C250.435 191.309 250.062 191.469 249.721 191.402L249.708 191.495Z" fill="#FFB61D"/>
<path d="M214.51 175.964C214.223 175.578 215.117 175.248 215.319 175.684C215.522 176.12 215.162 176.612 214.771 176.891C214.487 176.709 214.336 176.341 214.409 176.011L214.51 175.964Z" fill="#FFB61D"/>
<path d="M243.379 204.214C243.225 204.42 242.988 204.561 242.734 204.6C242.529 204.45 242.388 204.214 242.355 203.962C242.561 203.652 242.881 203.421 243.239 203.324C243.591 203.444 243.686 203.995 243.393 204.226L243.379 204.214Z" fill="#FFB61D"/>
<path d="M273.913 204.474C273.611 204.604 273.309 204.733 273.007 204.863C272.801 204.699 272.658 204.459 272.609 204.202C272.876 203.982 273.186 203.757 273.53 203.784C273.875 203.812 274.173 204.253 273.945 204.513L273.913 204.474Z" fill="#FFB61D"/>
<path d="M249.778 206.822C250.072 206.974 250.367 207.127 250.662 207.281C250.341 207.62 249.916 207.859 249.46 207.958C249.254 207.808 249.112 207.573 249.077 207.32C249.229 207.114 249.467 206.973 249.721 206.938L249.778 206.822Z" fill="#FFB61D"/>
<path d="M215.173 207.057C215.41 207.216 215.515 207.545 215.415 207.812C215.059 208.149 214.344 208.035 214.222 207.56C214.099 207.086 214.887 206.684 215.127 207.111L215.173 207.057Z" fill="#FFB61D"/>
<path d="M239.281 194.377C239.385 194.994 240.564 194.796 240.461 194.179C240.357 193.561 239.178 193.759 239.281 194.377Z" fill="#FFB61D"/>
<path d="M252.685 178.757C253.242 178.698 253.709 179.407 253.436 179.895C253.165 180.103 252.725 180.036 252.529 179.756C252.333 179.476 252.421 179.04 252.709 178.857L252.685 178.757Z" fill="#FFB61D"/>
<path d="M211.501 193.823C211.805 193.521 212.384 193.979 212.25 194.387C212.114 194.793 211.552 194.923 211.169 194.73C210.911 194.435 211.067 193.893 211.441 193.779L211.501 193.823Z" fill="#FFB61D"/>
<path d="M239.365 186.486C239.678 186.04 240.545 186.339 240.517 186.883C240.265 187.228 239.781 187.382 239.376 187.245C239.187 187.039 239.18 186.69 239.36 186.476L239.365 186.486Z" fill="#FFB61D"/>
<path d="M270.415 175.627C270.626 175.765 270.765 176.008 270.778 176.26C270.557 176.815 269.525 176.614 269.529 176.016C269.705 175.719 270.082 175.557 270.419 175.632L270.415 175.627Z" fill="#FFB61D"/>
<path d="M222.203 210.876C222.409 211.277 222.138 211.849 221.693 211.915C221.247 211.982 220.816 211.471 220.983 211.053C221.15 210.634 221.853 210.585 222.054 210.989L222.203 210.876Z" fill="#FFB61D"/>
<path d="M231.607 203.84C232.037 203.794 232.588 203.814 232.752 204.214C232.558 204.522 232.24 204.751 231.886 204.837C231.682 204.725 231.464 204.599 231.37 204.385C231.275 204.172 231.392 203.859 231.625 203.852L231.607 203.84Z" fill="#FFB61D"/>
<path d="M277.148 176.659C277.56 176.516 277.682 175.879 277.351 175.593C277.021 175.307 276.409 175.52 276.326 175.949C276.244 176.379 276.734 176.803 277.148 176.659Z" fill="#FFB61D"/>
<path d="M260.451 179.378C260.911 179.658 260.62 180.541 260.084 180.493C259.777 180.389 259.592 180.016 259.695 179.709C259.797 179.402 260.169 179.216 260.476 179.317L260.451 179.378Z" fill="#FFB61D"/>
<path d="M246.928 210.44C246.809 209.841 245.665 210.069 245.784 210.668C245.903 211.266 247.047 211.039 246.928 210.44Z" fill="#FFB61D"/>
<path d="M217.581 176.514C217.7 177.113 218.843 176.886 218.724 176.287C218.606 175.688 217.462 175.915 217.581 176.514Z" fill="#FFB61D"/>
<path d="M274.299 207.96C274.018 208.42 273.135 208.13 273.184 207.593C273.288 207.286 273.66 207.102 273.967 207.204C274.274 207.306 274.46 207.678 274.359 207.986L274.299 207.96Z" fill="#FFB61D"/>
<path d="M214.9 172.084C215.347 171.915 215.868 172.463 215.676 172.9C215.281 173.111 214.782 173.112 214.387 172.902C214.438 172.586 214.646 172.299 214.93 172.151L214.9 172.084Z" fill="#FFB61D"/>
<path d="M239.633 180.277C239.422 180.139 239.283 179.897 239.27 179.645C239.491 179.09 240.523 179.291 240.52 179.889C240.343 180.186 239.967 180.348 239.629 180.273L239.633 180.277Z" fill="#FFB61D"/>
<path d="M259.694 201.368C259.495 201.007 259.834 200.487 260.245 200.518C260.657 200.549 260.916 201.105 260.678 201.443C260.441 201.781 259.837 201.733 259.652 201.364L259.694 201.368Z" fill="#FFB61D"/>
<path d="M249.077 183.261C249.214 183.051 249.457 182.911 249.709 182.898C250.264 183.119 250.063 184.152 249.466 184.147C249.169 183.971 249.006 183.595 249.081 183.258L249.077 183.261Z" fill="#FFB61D"/>
<path d="M277.718 172.252C277.748 172.469 277.778 172.687 277.807 172.904C277.407 173.108 276.91 173.109 276.508 172.908C276.494 172.338 277.214 171.898 277.715 172.171L277.718 172.252Z" fill="#FFB61D"/>
<path d="M236.649 214.05C236.377 213.506 235.337 214.024 235.609 214.569C235.88 215.113 236.92 214.595 236.649 214.05Z" fill="#FFB61D"/>
<path d="M260.731 186.347C260.301 185.918 259.484 186.741 259.915 187.169C260.345 187.597 261.162 186.774 260.731 186.347Z" fill="#FFB61D"/>
<path d="M250.104 172.391C249.832 171.847 248.792 172.365 249.064 172.91C249.335 173.454 250.375 172.936 250.104 172.391Z" fill="#FFB61D"/>
<path d="M273.943 201.096C273.681 200.53 272.598 201.032 272.861 201.599C273.124 202.165 274.206 201.663 273.943 201.096Z" fill="#FFB61D"/>
<path d="M214.026 200.974C214.292 201.515 215.325 201.005 215.058 200.465C214.792 199.925 213.759 200.434 214.026 200.974Z" fill="#FFB61D"/>
<path d="M256.832 211.197C256.694 211.408 256.452 211.547 256.2 211.56C255.644 211.339 255.845 210.307 256.443 210.311C256.739 210.487 256.902 210.864 256.828 211.201L256.832 211.197Z" fill="#FFB61D"/>
<path d="M236.769 193.743C236.502 193.202 235.47 193.712 235.737 194.252C236.003 194.792 237.035 194.283 236.769 193.743Z" fill="#FFB61D"/>
<path d="M270.407 182.873C270.734 183.214 270.387 183.903 269.917 183.843C269.577 183.745 269.389 183.3 269.555 182.987C269.722 182.673 270.195 182.581 270.468 182.807L270.407 182.873Z" fill="#FFB61D"/>
<path d="M245.968 218.188C245.797 218.016 245.625 217.844 245.454 217.673C245.773 217.161 246.644 217.151 246.974 217.655C246.809 218.041 246.38 218.297 245.961 218.257L245.968 218.188Z" fill="#FFB61D"/>
<path d="M277.924 180.023C277.751 180.194 277.58 180.366 277.408 180.537C276.896 180.218 276.886 179.347 277.391 179.016C277.777 179.18 278.033 179.61 277.992 180.028L277.924 180.023Z" fill="#FFB61D"/>
<path d="M228.377 179.38C228.515 179.169 228.757 179.031 229.009 179.017C229.565 179.238 229.363 180.27 228.766 180.267C228.469 180.09 228.306 179.713 228.381 179.376L228.377 179.38Z" fill="#FFB61D"/>
<path d="M215.785 180.287C215.465 180.46 215.011 180.294 214.877 179.955C214.742 179.616 214.961 179.184 215.313 179.092C215.785 179.169 216.043 179.821 215.752 180.2L215.785 180.287Z" fill="#FFB61D"/>
<path d="M256.871 183.515C256.868 182.913 255.718 182.918 255.721 183.52C255.723 184.123 256.873 184.118 256.871 183.515Z" fill="#FFB61D"/>
<path d="M250.362 204.218C250.091 203.673 249.051 204.192 249.323 204.736C249.594 205.281 250.634 204.762 250.362 204.218Z" fill="#FFB61D"/>
<path d="M279.68 176.514C279.799 177.113 280.943 176.886 280.824 176.287C280.705 175.688 279.561 175.915 279.68 176.514Z" fill="#FFB61D"/>
<path d="M245.566 193.725C245.946 193.327 246.697 193.399 246.994 193.862C246.781 194.17 246.462 194.402 246.104 194.511C245.834 194.334 245.629 194.059 245.538 193.749L245.566 193.725Z" fill="#FFB61D"/>
<path d="M269.592 193.656C270.014 193.404 270.646 193.671 270.76 194.148C270.515 194.483 270.04 194.628 269.65 194.488C269.46 194.283 269.453 193.936 269.632 193.723L269.592 193.656Z" fill="#FFB61D"/>
<path d="M246.018 190.227C245.866 189.949 246.21 189.606 246.524 189.649C246.838 189.693 247.065 189.969 247.218 190.245C246.981 190.733 246.158 190.75 245.901 190.274L246.018 190.227Z" fill="#FFB61D"/>
<path d="M280.254 197.107C280.535 196.646 281.418 196.937 281.369 197.474C281.265 197.78 280.893 197.965 280.586 197.863C280.279 197.76 280.092 197.389 280.193 197.082L280.254 197.107Z" fill="#FFB61D"/>
<path d="M242.735 193.49C243.096 193.291 243.616 193.629 243.585 194.041C243.553 194.453 242.997 194.711 242.66 194.474C242.322 194.237 242.37 193.633 242.738 193.447L242.735 193.49Z" fill="#FFB61D"/>
<path d="M245.715 200.596C245.933 200.411 246.284 200.406 246.507 200.586C246.526 201.05 246.251 201.514 245.834 201.719C245.418 201.525 245.342 200.861 245.702 200.579L245.715 200.596Z" fill="#FFB61D"/>
<path d="M276.226 201.125C276.657 201.553 277.474 200.731 277.043 200.303C276.613 199.876 275.796 200.698 276.226 201.125Z" fill="#FFB61D"/>
<path d="M236.376 180.427C235.884 180.018 236.459 179.037 237.056 179.267C237.325 179.727 236.925 180.414 236.392 180.406L236.376 180.427Z" fill="#FFB61D"/>
<path d="M236.51 176.148C236.243 175.607 235.211 176.117 235.478 176.657C235.744 177.197 236.776 176.689 236.51 176.148Z" fill="#FFB61D"/>
<path d="M210.91 176.916C210.704 176.765 210.562 176.528 210.527 176.275C210.739 175.969 211.055 175.737 211.41 175.627C211.769 176.06 211.469 176.844 210.912 176.927L210.91 176.916Z" fill="#FFB61D"/>
<path d="M269.917 204.931C269.51 204.931 269.2 204.42 269.393 204.061C269.586 203.703 270.191 203.685 270.4 204.035C270.608 204.385 270.294 204.912 269.888 204.89L269.917 204.931Z" fill="#FFB61D"/>
<path d="M276.901 169.115C277.264 169.234 277.584 169.483 277.789 169.806C277.5 170.229 276.843 170.341 276.429 170.037C276.548 169.73 276.666 169.423 276.785 169.116L276.901 169.115Z" fill="#FFB61D"/>
<path d="M242.734 200.594C242.74 200.237 243.122 199.937 243.471 200.016C243.819 200.095 244.035 200.53 243.887 200.856C243.484 201.13 242.863 200.998 242.607 200.582L242.734 200.594Z" fill="#FFB61D"/>
<path d="M249.008 186.913C248.819 186.551 249.118 186.039 249.526 186.027C249.934 186.015 250.263 186.508 250.095 186.88C249.793 187.082 249.37 187.083 249.067 186.883L249.008 186.913Z" fill="#FFB61D"/>
<path d="M222.099 172.79C221.974 173.276 221.272 173.49 220.897 173.156C220.756 172.857 220.908 172.448 221.22 172.334C221.531 172.221 221.923 172.459 221.947 172.789L222.099 172.79Z" fill="#FFB61D"/>
<path d="M217.329 194.278C217.213 193.979 217.382 193.6 217.683 193.489C217.984 193.377 218.36 193.552 218.468 193.855C218.37 194.329 217.732 194.593 217.329 194.326V194.278Z" fill="#FFB61D"/>
<path d="M228.503 201.239C228.298 201.083 228.156 200.847 228.115 200.593C228.329 200.382 228.542 200.171 228.755 199.961C229.308 200.197 229.105 201.222 228.504 201.231L228.503 201.239Z" fill="#FFB61D"/>
<path d="M218.146 204.824C217.737 204.974 217.389 204.307 217.691 203.993C217.993 203.678 218.582 203.837 218.792 204.22C218.579 204.434 218.366 204.648 218.153 204.862L218.146 204.824Z" fill="#FFB61D"/>
<path d="M217.634 173.555C217.333 173.184 217.673 172.517 218.15 172.542C218.447 172.72 218.612 173.095 218.54 173.433C218.262 173.569 217.939 173.608 217.637 173.544L217.634 173.555Z" fill="#FFB61D"/>
<path d="M267.304 190.374C267.669 190.473 267.517 191.105 267.147 191.187C266.778 191.269 266.424 191.017 266.134 190.774C266.393 190.421 266.888 190.263 267.304 190.4V190.374Z" fill="#FFB61D"/>
<path d="M273.47 190.71C273.269 190.562 273.068 190.415 272.866 190.268C273.184 189.736 274.083 189.72 274.419 190.239C274.239 190.534 273.864 190.696 273.526 190.624L273.47 190.71Z" fill="#FFB61D"/>
<path d="M279.67 173.386C279.443 173.069 279.743 172.551 280.133 172.565C280.523 172.579 280.792 173.076 280.613 173.423C280.319 173.628 279.898 173.63 279.602 173.428L279.67 173.386Z" fill="#FFB61D"/>
<path d="M256.837 194.384C256.465 194.684 255.799 194.346 255.823 193.868C255.947 193.653 256.188 193.512 256.437 193.511C256.785 193.635 257.003 194.044 256.911 194.402L256.837 194.384Z" fill="#FFB61D"/>
<path d="M225.459 206.594C225.661 206.748 225.864 206.902 226.066 207.056C225.737 207.371 225.322 207.596 224.878 207.701C224.574 207.335 224.924 206.667 225.398 206.707L225.459 206.594Z" fill="#FFB61D"/>
<path d="M222.159 179.378C221.888 178.833 220.848 179.352 221.119 179.896C221.391 180.441 222.431 179.922 222.159 179.378Z" fill="#FFB61D"/>
<path d="M217.507 207.321C217.661 207.116 217.898 206.974 218.153 206.935C218.357 207.09 218.499 207.326 218.54 207.579C218.325 207.793 218.11 208.008 217.896 208.223C217.604 208.035 217.445 207.662 217.511 207.321H217.507Z" fill="#FFB61D"/>
<path d="M242.365 173.149C242.726 173.592 243.572 172.902 243.211 172.46C242.85 172.017 242.004 172.707 242.365 173.149Z" fill="#FFB61D"/>
<path d="M273.13 186.887C273.099 186.293 274.124 186.056 274.357 186.603C274.281 187.149 273.422 187.355 273.107 186.903L273.13 186.887Z" fill="#FFB61D"/>
<path d="M280.256 194.255C280.045 194.657 279.274 194.298 279.446 193.878C279.489 193.552 279.899 193.336 280.192 193.485C280.485 193.634 280.553 194.092 280.315 194.319L280.256 194.255Z" fill="#FFB61D"/>
<path d="M246.608 183.348C246.2 183.498 245.852 182.831 246.154 182.517C246.456 182.203 247.045 182.362 247.255 182.744C247.042 182.958 246.828 183.172 246.615 183.386L246.608 183.348Z" fill="#FFB61D"/>
<path d="M221.785 206.984C222.062 206.825 222.412 207.172 222.368 207.489C222.324 207.805 222.045 208.033 221.767 208.189C221.3 207.962 221.319 207.154 221.796 206.949L221.785 206.984Z" fill="#FFB61D"/>
<path d="M231.748 173.689C231.617 173.143 232.321 172.513 232.727 172.9C232.702 173.208 232.665 173.543 232.448 173.763C232.232 173.984 231.773 173.968 231.687 173.672L231.748 173.689Z" fill="#FFB61D"/>
<path d="M257.359 213.782C257.391 214.376 256.366 214.613 256.133 214.065C256.208 213.52 257.067 213.314 257.381 213.766L257.359 213.782Z" fill="#FFB61D"/>
<path d="M228.889 207.052C228.299 207.132 228.453 208.26 229.043 208.179C229.634 208.099 229.48 206.971 228.889 207.052Z" fill="#FFB61D"/>
<path d="M256.181 206.941C256.692 207.268 256.699 208.142 256.193 208.478C255.683 208.144 255.681 207.269 256.189 206.933L256.181 206.941Z" fill="#FFB61D"/>
<path d="M232.507 183.254C232.098 183.53 231.471 183.4 231.208 182.982C231.477 182.765 231.786 182.54 232.131 182.567C232.476 182.595 232.774 183.038 232.544 183.297L232.507 183.254Z" fill="#FFB61D"/>
<path d="M243.255 214.696C243.043 215.098 242.273 214.739 242.445 214.319C242.488 213.993 242.898 213.777 243.191 213.926C243.484 214.075 243.551 214.534 243.314 214.76L243.255 214.696Z" fill="#FFB61D"/>
<path d="M211.678 187.23C211.268 187.38 210.921 186.713 211.223 186.398C211.525 186.083 212.113 186.243 212.324 186.624C212.111 186.839 211.898 187.053 211.684 187.267L211.678 187.23Z" fill="#FFB61D"/>
<path d="M267.577 169.933C267.366 170.335 266.596 169.976 266.768 169.555C266.811 169.23 267.22 169.014 267.513 169.163C267.807 169.312 267.874 169.77 267.636 169.997L267.577 169.933Z" fill="#FFB61D"/>
<path d="M252.919 176.026C253.076 176.435 252.916 176.942 252.553 177.186C252.316 176.893 252.062 176.542 252.143 176.173C252.224 175.805 252.861 175.658 252.95 176.024L252.919 176.026Z" fill="#FFB61D"/>
<path d="M243.252 197.098C243.553 197.47 243.214 198.137 242.736 198.112C242.522 197.989 242.381 197.747 242.379 197.498C242.503 197.15 242.913 196.933 243.271 197.024L243.252 197.098Z" fill="#FFB61D"/>
<path d="M245.887 173.298C245.852 173.861 246.928 173.929 246.964 173.366C246.999 172.802 245.922 172.735 245.887 173.298Z" fill="#FFB61D"/>
<path d="M263.69 182.611C263.896 182.762 264.038 183 264.072 183.254C263.888 183.547 263.515 183.708 263.176 183.642C262.869 183.276 263.216 182.604 263.692 182.643L263.69 182.611Z" fill="#FFB61D"/>
<path d="M249.848 217.669C249.693 217.874 249.456 218.016 249.202 218.055C248.997 217.901 248.856 217.665 248.817 217.412C249.013 217.178 249.294 216.967 249.595 217.013C249.897 217.059 250.096 217.503 249.85 217.683L249.848 217.669Z" fill="#FFB61D"/>
<path d="M274.167 182.99C273.905 183.396 273.296 183.524 272.893 183.259C272.709 182.983 273 182.586 273.331 182.561C273.661 182.536 273.96 182.756 274.186 183L274.167 182.99Z" fill="#FFB61D"/>
<path d="M224.821 180.1C224.569 179.797 224.859 179.252 225.253 179.268C225.647 179.285 225.901 179.812 225.687 180.143C225.474 180.475 224.92 180.483 224.675 180.175L224.821 180.1Z" fill="#FFB61D"/>
<path d="M236.378 210.944C236.454 211.15 236.41 211.395 236.267 211.561C235.87 211.746 235.31 211.371 235.409 210.944C235.508 210.517 236.295 210.531 236.318 210.968L236.378 210.944Z" fill="#FFB61D"/>
<path d="M270.17 200.943C269.881 200.918 269.86 200.444 270.099 200.279C270.338 200.115 270.659 200.17 270.942 200.231C271.077 200.411 271.125 200.652 271.068 200.87C270.788 201.002 270.465 201.038 270.163 200.972L270.17 200.943Z" fill="#FFB61D"/>
<path d="M242.733 179.246C242.993 179.246 243.252 179.246 243.511 179.245C243.633 179.437 243.679 179.675 243.637 179.898C243.345 180.014 243.009 180.129 242.73 179.986C242.45 179.843 242.431 179.318 242.743 179.282L242.733 179.246Z" fill="#FFB61D"/>
<path d="M257.4 179.536C257.199 179.008 256.191 179.394 256.393 179.922C256.595 180.449 257.602 180.064 257.4 179.536Z" fill="#FFB61D"/>
<path d="M273.151 180.415C273.086 180.123 273.148 179.774 273.396 179.606C273.642 179.437 274.069 179.589 274.071 179.889C274.024 180.15 273.963 180.435 273.752 180.594C273.539 180.753 273.143 180.642 273.154 180.378L273.151 180.415Z" fill="#FFB61D"/>
<path d="M211.736 180.662C211.329 180.8 210.869 180.315 211.029 179.916C211.189 179.517 211.855 179.482 212.055 179.862C211.93 180.087 211.806 180.312 211.68 180.537L211.736 180.662Z" fill="#FFB61D"/>
<path d="M227.856 214.57C227.813 214.094 228.488 213.744 228.852 214.053C229.01 214.315 228.902 214.699 228.631 214.841C228.36 214.983 227.982 214.852 227.857 214.573L227.856 214.57Z" fill="#FFB61D"/>
<path d="M260.513 197.806C260.926 197.427 260.201 196.638 259.788 197.017C259.375 197.396 260.099 198.186 260.513 197.806Z" fill="#FFB61D"/>
<path d="M239.886 201.728C239.53 201.842 239.168 201.383 239.32 201.041C239.47 200.699 239.98 200.616 240.271 200.849C240.359 201.188 240.188 201.576 239.88 201.741L239.886 201.728Z" fill="#FFB61D"/>
<path d="M263.004 170.621C262.615 170.241 263.195 169.454 263.673 169.713C264.046 170.081 263.491 170.839 263.027 170.595L263.004 170.621Z" fill="#FFB61D"/>
<path d="M240.145 183.115C239.711 183.164 239.156 183.135 238.991 182.729C239.252 182.391 239.734 182.241 240.14 182.372C240.329 182.579 240.336 182.927 240.157 183.142L240.145 183.115Z" fill="#FFB61D"/>
<path d="M259.664 175.97C260.103 175.789 260.631 176.341 260.429 176.772C260.222 176.99 259.83 176.993 259.621 176.777C259.411 176.562 259.425 176.17 259.65 175.97L259.664 175.97Z" fill="#FFB61D"/>
<path d="M256.06 172.649C256.215 172.444 256.452 172.302 256.706 172.263C256.911 172.417 257.053 172.654 257.091 172.907C256.937 173.112 256.701 173.253 256.447 173.292C256.242 173.138 256.1 172.901 256.064 172.647L256.06 172.649Z" fill="#FFB61D"/>
<path d="M240.106 190.548C239.829 191.022 239.006 190.996 238.759 190.506C238.995 190.015 239.822 189.992 240.084 190.469L240.106 190.548Z" fill="#FFB61D"/>
<path d="M221.767 203.808C222.045 203.771 222.255 204.124 222.165 204.388C222.073 204.654 221.792 204.809 221.515 204.859C221.311 204.705 221.17 204.469 221.132 204.216C221.284 204.01 221.522 203.868 221.776 203.832L221.767 203.808Z" fill="#FFB61D"/>
<path d="M250.304 211.058C250.316 211.26 250.328 211.462 250.339 211.664C250.089 212.022 249.403 211.829 249.375 211.394C249.348 210.958 250.006 210.682 250.299 211.005L250.304 211.058Z" fill="#FFB61D"/>
<path d="M263.691 200.206C263.896 200.361 264.038 200.597 264.077 200.851C263.924 201.056 263.687 201.198 263.434 201.236C263.228 201.083 263.087 200.846 263.048 200.593C263.202 200.387 263.439 200.246 263.693 200.21L263.691 200.206Z" fill="#FFB61D"/>
<path d="M231.762 214.823C231.668 214.537 231.747 214.179 232.003 214.019C232.26 213.86 232.671 214.001 232.714 214.3C232.605 214.524 232.495 214.747 232.385 214.97C232.166 214.945 231.947 214.92 231.729 214.895L231.762 214.823Z" fill="#FFB61D"/>
<path d="M250.389 176.531C250.42 176.877 250.049 177.195 249.711 177.114C249.373 177.032 249.189 176.58 249.374 176.285C249.658 176.013 250.216 176.167 250.32 176.547L250.389 176.531Z" fill="#FFB61D"/>
<path d="M221.235 197.343C221.493 196.968 222.225 197.293 222.121 197.736C222.012 197.96 221.77 198.111 221.522 198.111C221.236 198.001 221.095 197.618 221.242 197.35L221.235 197.343Z" fill="#FFB61D"/>
<path d="M273.547 175.618C273.864 176.11 273.242 176.857 272.7 176.634C272.625 176.148 273.035 175.644 273.526 175.618L273.547 175.618Z" fill="#FFB61D"/>
<path d="M217.495 186.624C217.48 186.139 218.146 185.798 218.53 186.093C218.729 186.629 217.811 187.108 217.486 186.637L217.495 186.624Z" fill="#FFB61D"/>
<path d="M279.731 186.229C279.906 185.998 280.233 185.896 280.51 185.985C280.637 186.164 280.683 186.398 280.632 186.611C280.419 186.736 280.205 186.86 279.992 186.985C279.71 186.87 279.574 186.49 279.719 186.222L279.731 186.229Z" fill="#FFB61D"/>
<path d="M253.228 172.626C253.603 172.884 253.278 173.616 252.836 173.511C252.612 173.403 252.46 173.161 252.46 172.913C252.57 172.627 252.953 172.486 253.222 172.633L253.228 172.626Z" fill="#FFB61D"/>
<path d="M221.919 176.248C222.294 176.506 221.97 177.239 221.527 177.134C221.304 177.026 221.152 176.783 221.152 176.535C221.261 176.249 221.644 176.108 221.913 176.255L221.919 176.248Z" fill="#FFB61D"/>
<path d="M253.726 186.102C253.448 186.504 252.837 186.628 252.424 186.366C252.416 185.756 253.473 185.548 253.696 186.116L253.726 186.102Z" fill="#FFB61D"/>
<path d="M231.479 201.112C231.634 200.906 231.871 200.764 232.125 200.726C232.33 200.879 232.471 201.116 232.51 201.369C232.356 201.574 232.12 201.716 231.866 201.754C231.66 201.601 231.519 201.363 231.484 201.109L231.479 201.112Z" fill="#FFB61D"/>
<path d="M236.652 183.515C236.497 183.72 236.26 183.861 236.006 183.901C235.801 183.746 235.66 183.51 235.621 183.256C235.775 183.051 236.011 182.91 236.265 182.872C236.471 183.025 236.612 183.263 236.648 183.517L236.652 183.515Z" fill="#FFB61D"/>
<path d="M273.165 194.141C273.368 193.668 274.17 193.649 274.396 194.113C274.166 194.608 273.333 194.637 273.07 194.158L273.165 194.141Z" fill="#FFB61D"/>
<path d="M253.204 217.655C252.989 217.786 252.775 217.917 252.56 218.048C252.357 217.899 252.218 217.664 252.187 217.414C252.372 217.121 252.745 216.96 253.085 217.026C253.209 217.213 253.253 217.45 253.204 217.669L253.204 217.655Z" fill="#FFB61D"/>
<path d="M252.696 210.686C252.576 210.397 253.047 210.255 253.356 210.301C253.49 210.578 253.529 210.901 253.463 211.202C253.278 211.326 253.042 211.372 252.823 211.328C252.699 211.141 252.655 210.904 252.704 210.686H252.696Z" fill="#FFB61D"/>
<path d="M231.479 180.153C231.634 179.947 231.871 179.806 232.125 179.767C232.33 179.921 232.471 180.157 232.51 180.411C232.356 180.616 232.12 180.757 231.866 180.795C231.66 180.642 231.519 180.404 231.484 180.15L231.479 180.153Z" fill="#FFB61D"/>
<path d="M266.794 186.233C267.079 186.107 267.226 186.58 267.179 186.888C266.902 187.023 266.58 187.064 266.278 187.004C266.156 186.816 266.11 186.58 266.154 186.36C266.34 186.236 266.578 186.192 266.796 186.241L266.794 186.233Z" fill="#FFB61D"/>
<path d="M222.149 183.26C222.215 183.475 222.174 183.72 222.042 183.903C221.818 183.956 221.573 183.91 221.383 183.779C221.385 183.52 221.388 183.26 221.39 183C221.608 182.72 222.157 182.901 222.165 183.257L222.149 183.26Z" fill="#FFB61D"/>
<path d="M232.665 194.528C232.407 194.902 231.674 194.578 231.779 194.135C231.887 193.912 232.13 193.76 232.378 193.76C232.663 193.869 232.805 194.252 232.658 194.521L232.665 194.528Z" fill="#FFB61D"/>
<path d="M225.774 182.515C226.026 182.571 226.119 182.956 225.921 183.12C225.49 183.164 224.941 183.141 224.777 182.741C224.957 182.385 225.464 182.242 225.804 182.452L225.774 182.515Z" fill="#FFB61D"/>
<path d="M239.886 214.178C240.092 214.333 240.234 214.569 240.272 214.824C240.119 215.029 239.882 215.171 239.629 215.209C239.424 215.055 239.282 214.819 239.244 214.565C239.397 214.359 239.635 214.218 239.889 214.182L239.886 214.178Z" fill="#FFB61D"/>
<path d="M249.07 193.6C249.398 193.361 249.932 193.506 250.095 193.877C249.834 194.215 249.353 194.364 248.946 194.233C248.773 194.058 248.853 193.709 249.086 193.628L249.07 193.6Z" fill="#FFB61D"/>
<path d="M229.042 191.164C228.784 191.539 228.052 191.214 228.156 190.771C228.265 190.548 228.507 190.396 228.755 190.397C229.041 190.506 229.182 190.889 229.035 191.157L229.042 191.164Z" fill="#FFB61D"/>
<path d="M249.732 200.455C249.451 200.023 248.626 200.561 248.907 200.992C249.189 201.424 250.014 200.887 249.732 200.455Z" fill="#FFB61D"/>
<path d="M222.084 193.998C222.027 194.539 221.085 194.638 220.917 194.12C221.103 193.703 221.77 193.626 222.046 193.99L222.084 193.998Z" fill="#FFB61D"/>
<path d="M246.113 214.914C245.555 214.702 245.755 213.662 246.354 213.675C246.629 214.074 246.503 214.692 246.093 214.952L246.113 214.914Z" fill="#FFB61D"/>
<path d="M218.358 183.206C218.16 183.062 217.963 182.918 217.765 182.773C217.971 182.276 218.815 182.258 219.041 182.745C218.896 182.951 218.66 183.091 218.409 183.121L218.358 183.206Z" fill="#FFB61D"/>
<path d="M256.315 203.692C256.695 203.951 256.622 204.638 256.196 204.812C255.683 204.641 255.775 203.709 256.312 203.643L256.315 203.692Z" fill="#FFB61D"/>
<path d="M273.253 173.562C273.534 173.994 274.359 173.457 274.078 173.025C273.797 172.593 272.972 173.13 273.253 173.562Z" fill="#FFB61D"/>
<path d="M249.1 213.805C249.308 213.331 250.113 213.316 250.337 213.783C250.119 214.257 249.306 214.252 249.093 213.776L249.1 213.805Z" fill="#FFB61D"/>
<path d="M235.798 172.853C235.942 172.656 236.087 172.458 236.231 172.261C236.728 172.466 236.747 173.311 236.259 173.537C236.054 173.391 235.914 173.156 235.883 172.905L235.798 172.853Z" fill="#FFB61D"/>
<path d="M266.813 183.094C266.483 183.041 266.524 182.471 266.84 182.358C267.154 182.245 267.498 182.465 267.692 182.738C267.51 183.031 267.136 183.191 266.798 183.121L266.813 183.094Z" fill="#FFB61D"/>
<path d="M263.073 193.879C263.238 193.514 263.756 193.364 264.089 193.587C264.19 193.87 264.007 194.219 263.717 194.297C263.427 194.375 263.094 194.165 263.039 193.869L263.073 193.879Z" fill="#FFB61D"/>
<path d="M232.368 189.887C232.698 189.941 232.657 190.511 232.342 190.624C232.027 190.737 231.683 190.517 231.489 190.244C231.671 189.951 232.045 189.791 232.383 189.861L232.368 189.887Z" fill="#FFB61D"/>
<path d="M259.798 194.521C260.079 194.953 260.905 194.415 260.623 193.983C260.342 193.552 259.517 194.089 259.798 194.521Z" fill="#FFB61D"/>
<path d="M236.92 207.851C237.352 207.569 236.815 206.744 236.383 207.026C235.951 207.307 236.488 208.132 236.92 207.851Z" fill="#FFB61D"/>
<path d="M270.108 187.088C269.91 186.943 269.712 186.799 269.515 186.654C269.72 186.157 270.565 186.139 270.791 186.626C270.645 186.832 270.41 186.971 270.159 187.002L270.108 187.088Z" fill="#FFB61D"/>
<path d="M267.416 193.849C267.21 194.323 266.404 194.338 266.18 193.871C266.398 193.398 267.211 193.402 267.424 193.879L267.416 193.849Z" fill="#FFB61D"/>
<path d="M277.508 186.604C277.3 187.078 276.495 187.093 276.271 186.627C276.489 186.153 277.303 186.157 277.515 186.634L277.508 186.604Z" fill="#FFB61D"/>
<path d="M227.753 204.426C227.894 204.129 228.035 203.833 228.177 203.538C228.459 203.731 228.714 204.053 228.633 204.385C228.553 204.718 227.967 204.812 227.899 204.477L227.753 204.426Z" fill="#FFB61D"/>
<path d="M280.721 183.231C280.425 183.089 280.129 182.947 279.833 182.806C280.026 182.524 280.349 182.269 280.681 182.35C281.013 182.43 281.108 183.015 280.773 183.084L280.721 183.231Z" fill="#FFB61D"/>
<path d="M263.18 206.944C263.408 206.883 263.662 206.927 263.854 207.063C263.752 207.43 263.504 207.754 263.176 207.949C262.774 207.799 262.781 207.103 263.185 206.961L263.18 206.944Z" fill="#FFB61D"/>
<path d="M211.152 190.548C210.99 189.96 212.123 189.664 212.27 190.256C212.106 190.61 211.598 190.746 211.278 190.522L211.152 190.548Z" fill="#FFB61D"/>
<path d="M211.182 183.353C210.852 183.299 210.893 182.73 211.208 182.617C211.523 182.504 211.867 182.724 212.061 182.997C211.879 183.29 211.505 183.45 211.167 183.38L211.182 183.353Z" fill="#FFB61D"/>
<path d="M260.479 203.696C260.465 203.956 260.303 204.203 260.071 204.32C259.594 204.101 259.599 203.282 260.078 203.069C260.282 203.216 260.421 203.451 260.451 203.7L260.479 203.696Z" fill="#FFB61D"/>
<path d="M218.157 201.798C217.767 201.803 217.707 201.236 217.785 200.853C217.982 200.657 218.338 200.655 218.537 200.849C218.624 201.188 218.453 201.576 218.145 201.741L218.157 201.798Z" fill="#FFB61D"/>
<path d="M264.046 204.224C263.919 203.718 262.953 203.96 263.079 204.466C263.206 204.972 264.172 204.73 264.046 204.224Z" fill="#FFB61D"/>
<path d="M263.545 177.015C263.266 177.172 262.963 176.719 263.126 176.444C263.291 176.169 263.664 176.108 263.983 176.136C264.113 176.473 263.895 176.9 263.545 176.992L263.545 177.015Z" fill="#FFB61D"/>
<path d="M253.067 182.642C253.398 182.696 253.357 183.266 253.042 183.379C252.727 183.492 252.382 183.272 252.189 182.999C252.371 182.706 252.745 182.546 253.083 182.617L253.067 182.642Z" fill="#FFB61D"/>
<path d="M215.32 186.315C215.483 186.903 214.349 187.2 214.203 186.608C214.366 186.254 214.875 186.117 215.194 186.342L215.32 186.315Z" fill="#FFB61D"/>
<path d="M232.633 197.101C232.895 197.391 232.763 197.93 232.397 198.067C231.821 197.936 232.102 196.829 232.672 196.99L232.633 197.101Z" fill="#FFB61D"/>
<path d="M243.041 185.967C243.077 186.187 243.112 186.406 243.148 186.627C242.82 186.872 242.279 186.732 242.111 186.358C242.285 186.064 242.66 185.905 242.992 185.983L243.041 185.967Z" fill="#FFB61D"/>
<path d="M225.018 211.461C224.485 211.587 224.41 210.613 224.873 210.321C225.293 210.515 225.378 211.181 225.02 211.474L225.018 211.461Z" fill="#FFB61D"/>
<path d="M236.767 217.574C237.097 217.627 237.056 218.197 236.741 218.31C236.426 218.423 236.082 218.203 235.888 217.93C236.07 217.637 236.444 217.477 236.782 217.547L236.767 217.574Z" fill="#FFB61D"/>
<path d="M263.55 186.106C263.613 186.321 263.573 186.564 263.444 186.748C263.105 186.826 262.713 186.674 262.552 186.365C262.733 186.008 263.24 185.865 263.581 186.074L263.55 186.106Z" fill="#FFB61D"/>
<path d="M262.53 172.91C262.674 172.701 262.915 172.561 263.168 172.539C263.564 172.702 263.567 173.382 263.172 173.547C262.957 173.334 262.743 173.12 262.528 172.907L262.53 172.91Z" fill="#FFB61D"/>
<path d="M221.644 186.611C221.355 186.873 220.815 186.741 220.677 186.376C220.809 185.799 221.916 186.081 221.756 186.65L221.644 186.611Z" fill="#FFB61D"/>
<path d="M250.252 197.442C250.413 198.03 249.281 198.326 249.134 197.734C249.298 197.38 249.806 197.244 250.125 197.468L250.252 197.442Z" fill="#FFB61D"/>
<path d="M255.786 175.983C256.067 175.85 256.444 175.99 256.569 176.274C256.357 176.485 256.145 176.696 255.934 176.907C255.586 176.776 255.498 176.231 255.787 175.998L255.786 175.983Z" fill="#FFB61D"/>
<path d="M259.405 173.454C259.148 173.275 259.144 172.833 259.399 172.649C259.653 172.466 260.071 172.608 260.16 172.908C260.011 173.189 259.733 173.397 259.422 173.461L259.405 173.454Z" fill="#FFB61D"/>
<path d="M260.239 207.58C260.212 207.939 259.663 208.111 259.436 207.832C259.319 207.492 259.536 207.108 259.843 206.921C259.975 207.131 260.107 207.343 260.239 207.555V207.58Z" fill="#FFB61D"/>
<path d="M283.871 180.009C283.656 180.073 283.413 180.033 283.23 179.904C283.152 179.565 283.304 179.173 283.612 179.012C283.969 179.193 284.113 179.699 283.903 180.041L283.871 180.009Z" fill="#FFB61D"/>
<path d="M245.835 180.026C245.593 179.705 245.732 179.17 246.102 179.01C246.394 179.19 246.553 179.561 246.481 179.896C246.295 180.018 246.058 180.062 245.839 180.014L245.835 180.026Z" fill="#FFB61D"/>
<path d="M262.966 179.581C263.112 179.381 263.259 179.181 263.404 178.982C263.722 179.145 263.9 179.539 263.812 179.885C263.602 180.172 263.045 179.987 263.046 179.632L262.966 179.581Z" fill="#FFB61D"/>
<path d="M267.053 211.334C266.81 211.013 266.95 210.479 267.319 210.319C267.611 210.498 267.77 210.869 267.699 211.204C267.512 211.327 267.276 211.371 267.057 211.323L267.053 211.334Z" fill="#FFB61D"/>
<path d="M228.242 186.76C228.076 186.532 228.169 186.164 228.423 186.043C228.677 185.921 229.022 186.08 229.095 186.352C228.991 186.705 228.571 186.928 228.22 186.817L228.242 186.76Z" fill="#FFB61D"/>
<path d="M225.187 213.298C225.482 213.438 225.776 213.579 226.07 213.719C225.905 214.049 225.506 214.244 225.144 214.173C224.959 213.958 224.95 213.612 225.123 213.387L225.187 213.298Z" fill="#FFB61D"/>
<path d="M253.393 214.169C253.426 214.387 253.459 214.604 253.492 214.821C253.307 214.952 253.062 214.992 252.845 214.927C252.467 214.631 252.95 213.89 253.374 214.117L253.393 214.169Z" fill="#FFB61D"/>
<path d="M263.844 211.201C263.827 211.461 263.665 211.707 263.433 211.827C263.128 211.666 262.964 211.279 263.058 210.948C263.269 210.664 263.823 210.85 263.82 211.204L263.844 211.201Z" fill="#FFB61D"/>
<path d="M256.706 186.749C256.536 186.91 256.366 187.07 256.196 187.23C255.84 187.157 255.703 186.615 255.981 186.383C256.259 186.149 256.768 186.379 256.778 186.741L256.706 186.749Z" fill="#FFB61D"/>
<path d="M280.619 179.64C280.77 180.035 280.422 180.528 280 180.518C279.639 180.135 280.18 179.384 280.658 179.607L280.619 179.64Z" fill="#FFB61D"/>
<path d="M280.514 190.89C280.225 191.012 280.081 190.538 280.127 190.228C280.454 189.994 280.981 190.141 281.138 190.511C280.992 190.715 280.758 190.854 280.509 190.883L280.514 190.89Z" fill="#FFB61D"/>
<path d="M218.533 179.891C218.598 180.276 218.101 180.618 217.764 180.421C217.752 180.14 217.756 179.818 217.967 179.631C218.177 179.444 218.625 179.631 218.522 179.893L218.533 179.891Z" fill="#FFB61D"/>
<path d="M259.555 214.693C259.347 214.548 259.207 214.308 259.185 214.054C259.347 213.658 260.027 213.656 260.193 214.05C259.979 214.265 259.766 214.48 259.552 214.695L259.555 214.693Z" fill="#FFB61D"/>
<path d="M236.007 204.602C235.802 204.448 235.661 204.211 235.621 203.956C235.775 203.751 236.012 203.61 236.266 203.57C236.516 203.886 236.368 204.428 235.992 204.573L236.007 204.602Z" fill="#FFB61D"/>
<path d="M259.538 191.162C259.335 190.834 259.665 190.335 260.046 190.391C260.428 190.687 259.95 191.434 259.522 191.212L259.538 191.162Z" fill="#FFB61D"/>
<path d="M218.886 190.187C219.132 190.621 218.363 191.132 218.058 190.738C217.793 190.373 218.5 189.911 218.799 190.249L218.886 190.187Z" fill="#FFB61D"/>
<path d="M270.164 169.689C270.37 169.609 270.62 169.657 270.782 169.808C270.956 170.129 270.596 170.582 270.243 170.484C269.89 170.386 269.815 169.813 270.13 169.627L270.164 169.689Z" fill="#FFB61D"/>
<path d="M267.329 203.555C267.532 203.883 267.202 204.383 266.821 204.326C266.439 204.031 266.917 203.283 267.345 203.505L267.329 203.555Z" fill="#FFB61D"/>
<path d="M256.313 191.262C255.974 191.42 255.762 190.872 255.805 190.501C255.988 190.283 256.38 190.304 256.538 190.539C256.697 190.775 256.57 191.146 256.301 191.235L256.313 191.262Z" fill="#FFB61D"/>
<path d="M232.653 186.482C232.812 186.718 232.706 187.086 232.447 187.202C232.187 187.318 231.842 187.15 231.772 186.875C231.938 186.578 232.315 186.417 232.644 186.504L232.653 186.482Z" fill="#FFB61D"/>
<path d="M236.402 186.928C236.184 186.964 235.967 186.998 235.749 187.032C235.532 186.712 235.874 186.199 236.254 186.276C236.508 186.332 236.601 186.723 236.399 186.888L236.402 186.928Z" fill="#FFB61D"/>
<path d="M228.512 176.925C228.048 177.042 228.109 176.195 228.494 175.909C228.9 176.045 228.899 176.751 228.492 176.886L228.512 176.925Z" fill="#FFB61D"/>
<path d="M225.154 203.813C225.356 204.142 225.027 204.641 224.645 204.584C224.263 204.289 224.741 203.542 225.169 203.764L225.154 203.813Z" fill="#FFB61D"/>
<path d="M221.041 190.965C221.182 190.787 221.323 190.608 221.464 190.431C221.788 190.443 222.007 190.875 221.825 191.144C221.644 191.413 221.162 191.372 221.028 191.077L221.041 190.965Z" fill="#FFB61D"/>
<path d="M259.787 182.882C259.643 182.608 259.788 182.225 260.076 182.113C260.283 182.251 260.422 182.487 260.44 182.736C260.353 182.983 259.983 183.067 259.798 182.882H259.787Z" fill="#FFB61D"/>
<path d="M224.597 190.903C224.454 190.629 224.598 190.245 224.886 190.134C225.094 190.272 225.231 190.509 225.25 190.757C225.164 191.004 224.793 191.088 224.609 190.903H224.597Z" fill="#FFB61D"/>
<path d="M283.927 176.136C283.961 176.364 283.995 176.59 284.029 176.817C283.804 176.861 283.578 176.906 283.352 176.95C283.139 176.613 283.474 176.092 283.869 176.146L283.927 176.136Z" fill="#FFB61D"/>
<path d="M228.785 193.724C228.971 194.071 228.631 194.562 228.24 194.512C228.121 194.321 228.075 194.085 228.116 193.864C228.304 193.74 228.542 193.696 228.76 193.745L228.785 193.724Z" fill="#FFB61D"/>
<path d="M228.258 183.609C227.852 183.487 227.84 182.784 228.243 182.649C228.647 182.782 228.636 183.487 228.23 183.61L228.258 183.609Z" fill="#FFB61D"/>
<path d="M228.9 211.196C228.923 211.446 228.751 211.701 228.51 211.773C228.194 211.733 228.013 211.294 228.21 211.043C228.408 210.793 228.877 210.867 228.989 211.166L228.9 211.196Z" fill="#FFB61D"/>
<path d="M231.841 207.981C231.699 207.707 231.843 207.323 232.131 207.212C232.338 207.35 232.476 207.586 232.495 207.834C232.409 208.081 232.038 208.166 231.854 207.98L231.841 207.981Z" fill="#FFB61D"/>
<path d="M228.355 172.652C228.382 172.264 228.841 171.875 229.138 172.126C229.178 172.379 229.179 172.674 228.992 172.849C228.805 173.025 228.399 172.894 228.451 172.643L228.355 172.652Z" fill="#FFB61D"/>
<path d="M263.56 197.98C263.314 198.102 263.013 197.806 263.067 197.537C263.121 197.268 263.413 197.1 263.687 197.097C263.913 197.358 263.852 197.814 263.563 198.005L263.56 197.98Z" fill="#FFB61D"/>
<path d="M235.787 200.536C235.93 200.362 236.072 200.188 236.215 200.013C236.521 200 236.757 200.398 236.598 200.66C236.439 200.923 235.978 200.899 235.847 200.621L235.787 200.536Z" fill="#FFB61D"/>
<path d="M256.703 198.123C256.483 198.179 256.24 198.143 256.046 198.024C256.049 197.676 256.351 197.308 256.692 197.381C257.032 197.453 257.031 198.096 256.683 198.077L256.703 198.123Z" fill="#FFB61D"/>
<path d="M253.328 189.895C253.621 189.976 253.771 190.373 253.605 190.627C253.359 190.686 253.089 190.628 252.889 190.475C253.026 190.259 253.162 190.044 253.299 189.829L253.328 189.895Z" fill="#FFB61D"/>
<path d="M228.359 196.924C228.781 196.908 228.575 197.602 228.24 197.861C228.02 197.602 228.088 197.153 228.376 196.971L228.359 196.924Z" fill="#FFB61D"/>
<path d="M270.026 196.97C270.363 197.133 270.275 197.747 269.905 197.809C269.466 197.723 269.596 196.892 270.04 196.944L270.026 196.97Z" fill="#FFB61D"/>
<path d="M245.671 186.708C245.46 186.592 245.592 186.226 245.826 186.17C246.06 186.114 246.292 186.249 246.495 186.378C246.484 186.733 245.923 186.897 245.723 186.604L245.671 186.708Z" fill="#FFB61D"/>
<path d="M236.524 197.871C236.361 198.208 235.747 198.119 235.686 197.749C235.772 197.311 236.602 197.44 236.551 197.885L236.524 197.871Z" fill="#FFB61D"/>
<path d="M218.047 210.436C218.143 210.132 218.668 210.124 218.772 210.425C218.669 210.727 218.142 210.719 218.048 210.415L218.047 210.436Z" fill="#FFB61D"/>
<path d="M232.019 217.422C232.115 217.118 232.64 217.11 232.744 217.411C232.641 217.713 232.115 217.705 232.02 217.401L232.019 217.422Z" fill="#FFB61D"/>
<path d="M283.704 172.89C283.632 173.179 283.241 173.334 282.992 173.171C282.868 172.938 282.964 172.6 283.21 172.506C283.456 172.412 283.774 172.652 283.715 172.909L283.704 172.89Z" fill="#FFB61D"/>
<path d="M276.832 208.057C276.658 207.914 276.483 207.771 276.309 207.629C276.296 207.322 276.693 207.087 276.956 207.246C277.218 207.405 277.194 207.866 276.916 207.997L276.832 208.057Z" fill="#FFB61D"/>
<path d="M270.033 211.469C269.778 211.357 269.872 210.885 270.151 210.879C270.521 210.89 270.325 211.659 270.042 211.419L270.033 211.469Z" fill="#FFB61D"/>
<path d="M233.064 454.789C216.778 439.91 202.992 422.301 192.456 402.92C188.012 394.744 184.041 385.559 185.705 376.404C188.816 359.28 182.386 342.073 177.32 325.421C172.255 308.77 168.667 289.966 176.814 274.587C163.961 286.439 158.806 304.399 156.051 321.665C149.663 361.692 153.258 403.274 166.422 441.611C150.965 413.317 150.357 379.464 151.824 347.257C152.964 322.195 155.767 295.506 171.509 275.973C147.273 295.739 139.899 329.105 134.55 359.92C129.529 388.854 125.059 419.221 134.369 447.073C125.585 430.878 127.02 411.282 128.833 392.949C133.005 350.777 139.427 305.364 168.967 274.978C176.78 266.941 186.316 260.127 197.26 257.707C205.74 255.833 213.911 252.561 221.342 248.064C223.133 237.575 213.263 229.316 206.368 221.211C198.647 212.135 193.829 200.625 192.785 188.755C192.167 181.728 190.692 172.154 183.644 171.855C177.851 171.608 173.491 164.619 175.815 159.308C178.141 153.996 186.235 152.46 190.346 156.549C184.482 134.569 196.868 109.208 217.808 100.318C214.394 95.4355 221.846 89.5835 227.763 90.2829C233.68 90.9823 239.407 94.5568 245.217 93.2362C243.226 89.7298 246.416 85.0722 250.346 84.1741C254.277 83.276 258.311 84.9825 261.837 86.9387C284.468 99.4942 299.424 124.815 299.495 150.697C300.081 145.972 307.17 144.355 310.637 147.616C314.104 150.877 313.939 156.715 311.478 160.79C309.015 164.863 304.819 167.538 300.665 169.863C300.77 187.026 294.243 204.146 282.738 216.883C274.367 226.151 262.506 235.982 265.253 248.164C269.707 247.179 274.211 252.317 272.653 256.604C291.747 255.013 309.566 266.537 323.093 280.107C342.924 299.997 357.177 325.392 363.827 352.681C364.988 357.448 371.77 358.748 375.966 356.204C380.162 353.661 382.318 348.851 384.23 344.333C396.82 314.581 409.41 284.828 422 255.076C417.786 229.181 421.535 230.623 423.509 218.514C428.904 204.44 427.873 191.723 430.056 178.327C430.65 174.679 433.202 169.866 436.57 171.387C438.274 172.156 438.875 174.232 439.239 176.066C441.281 186.37 441.934 196.95 441.174 207.427C445.532 199.972 449.89 192.517 454.248 185.061C456.634 180.98 461.902 176.412 465.211 179.787C467.028 181.641 466.55 184.683 465.8 187.169C463.415 195.075 459.527 202.525 454.406 209.003C461.311 211.358 469.309 214.934 470.518 222.129C471.019 225.114 470.173 228.151 469.172 231.006C465.688 240.934 460.186 250.148 453.098 257.922C454.724 256.94 455.788 259.861 455.464 261.733C447.689 306.715 428.744 349.724 400.801 385.823C392.555 396.476 381.369 407.463 367.956 406.207C359.56 405.42 352.466 399.911 345.897 394.624C338.824 388.931 331.752 383.238 324.679 377.545C341.143 381.223 350.312 401.761 367.06 403.789C380.677 405.438 392.108 394.033 400.338 383.059C427.193 347.253 445.534 305.106 453.433 261.051C442.694 262.853 431.515 261.973 421.191 258.513C410.946 290.276 398.045 321.181 382.664 350.8C380.006 355.92 375.277 361.87 369.817 360.009C367.373 359.175 365.722 356.932 364.345 354.748C350.582 332.92 347.384 303.813 327.311 287.597C335.401 337.77 322.646 388.79 308.209 437.517C319.261 399.548 325.994 360.323 328.236 320.841C328.75 311.777 329.007 302.513 326.442 293.804C323.877 285.095 318.02 276.9 309.52 273.711C303.984 309.72 271.555 336.506 263.349 372.002C256.713 400.704 246.516 428.581 233.064 454.789ZM266.399 356.217C278.736 332.762 294.911 311.291 304.953 286.766C307.237 281.19 309.12 274.562 306.016 269.398C304.895 267.534 303.225 266.075 301.583 264.649C298.985 262.393 296.137 260.028 292.709 259.749C288.16 259.379 284.215 262.781 281.288 266.284C274.191 274.777 269.608 285.042 265.25 295.216C254.825 319.551 245.134 344.319 239.038 370.082C232.944 395.845 230.514 422.737 234.705 448.877C240.012 424.905 257.859 404.592 260.305 380.161C260.708 376.137 260.681 372.053 261.557 368.105C262.486 363.915 264.4 360.015 266.399 356.217ZM290.823 134.857C289.152 131.636 287.067 128.555 284.217 126.31C277.867 121.31 268.926 121.296 260.982 122.782C255.904 123.732 250.922 125.197 246.137 127.147C244.888 127.655 243.562 128.209 242.235 127.968C240.908 127.726 239.714 126.296 240.258 125.061C240.363 124.824 240.525 124.604 240.553 124.345C240.63 123.623 239.712 123.262 238.992 123.158C228.059 121.582 216.417 123.425 207.225 129.553C198.033 135.68 191.671 146.364 192.011 157.405C192.087 159.883 193.95 161.91 195.82 163.538C198.68 166.026 201.832 168.18 205.19 169.94C206.697 170.73 208.765 171.356 209.917 170.103C212.203 167.619 216 167.426 219.375 167.499C231.105 167.75 242.898 169.103 254.526 167.54C261.611 166.588 268.51 164.566 275.567 163.429C277.728 163.08 279.96 162.818 282.091 163.323C284.221 163.827 286.255 165.244 286.934 167.326C289.681 164.221 292.153 160.871 294.307 157.33C294.955 156.267 295.582 155.162 295.822 153.941C296.034 152.858 295.929 151.739 295.785 150.644C295.063 145.147 293.375 139.778 290.823 134.857ZM273.229 211.984C277.369 210.169 279.695 205.766 281.261 201.526C284.994 191.419 286.194 180.388 284.721 169.715C284.573 168.642 284.375 167.518 283.691 166.679C282.607 165.349 280.67 165.142 278.955 165.213C274.924 165.377 271.001 166.487 267.077 167.424C258.813 169.397 250.348 170.623 241.852 170.652C233.457 170.679 225.075 169.541 216.686 169.867C215.016 169.932 213.251 170.088 211.895 171.066C209.747 172.616 209.369 175.619 209.283 178.267C208.956 188.334 210.144 198.45 212.795 208.167C212.955 208.751 213.134 209.36 213.559 209.791C214.016 210.256 214.681 210.437 215.307 210.62C225.443 213.588 234.21 222.089 244.746 221.355C252.562 220.812 259.132 215.207 266.783 213.517C268.945 213.04 271.202 212.873 273.229 211.984ZM186.583 378.289C185.954 387.424 191.123 395.835 196.093 403.524C201.125 411.308 206.157 419.093 211.188 426.877C203.767 402.179 200.266 376.475 197.886 350.798C195.399 323.986 194.166 296.481 201.497 270.572C202.66 266.461 204.054 262.368 206.305 258.736C199.556 258.56 192.377 259.077 186.871 262.985C183.292 265.525 180.752 269.294 178.871 273.259C173.056 285.511 173.042 299.81 175.612 313.125C178.183 326.441 183.17 339.148 187.077 352.135C188.212 355.909 189.267 359.783 189.129 363.721C188.956 368.656 186.922 373.364 186.583 378.289ZM219.363 214.593C215.884 213.258 211.665 212.167 210.282 208.707C209.632 207.083 209.791 205.266 209.603 203.526C209.416 201.787 208.687 199.879 207.06 199.236C203.139 197.686 199.378 195.733 195.856 193.417C197.603 203.693 202.256 213.458 209.136 221.289C212.582 225.21 216.577 228.664 219.629 232.899C222.683 237.133 224.759 242.461 223.635 247.559C223.276 249.183 225.611 249.89 227.273 249.851C238.321 249.59 249.367 249.281 260.412 248.925C262.284 248.865 263.388 246.679 263.344 244.807C263.3 242.935 262.546 241.125 262.571 239.253C262.607 236.501 264.294 234.072 266.012 231.921C271.097 225.55 277.038 219.913 282.326 213.707C287.613 207.502 292.324 200.551 294.335 192.651C290.836 198.552 283.453 201.595 280.716 207.887C279.162 211.458 275.405 213.559 271.684 214.707C267.963 215.855 264.019 216.321 260.467 217.919C258.646 218.738 256.967 219.838 255.183 220.736C248.919 223.891 241.37 224.392 234.743 222.091C229.349 220.219 224.692 216.64 219.363 214.593ZM440.587 230.201C444.425 229.973 449.061 231.466 451.604 228.582C452.185 227.922 452.57 227.013 452.359 226.158C452.071 224.995 450.848 224.355 449.733 223.915C442.614 221.103 434.647 220.485 427.18 222.164C424.58 222.749 423.059 225.149 422.49 227.753C421.92 230.357 422.059 233.176 422.49 235.806C423.586 242.487 424.682 249.168 425.778 255.848C425.828 256.15 425.881 256.461 426.05 256.715C426.304 257.096 426.765 257.272 427.199 257.42C432.594 259.258 438.333 260.078 444.026 259.823C446.29 259.722 448.738 259.364 450.327 257.748C458.103 249.841 463.789 239.894 466.655 229.181C465.094 230.577 463.09 231.664 461.002 231.503C458.914 231.341 456.885 229.565 457.021 227.474C453.017 230.56 448.302 233.824 443.353 232.8C439.569 232.017 435.392 233.693 433.199 236.875C431.863 236.524 432.377 234.455 433.35 233.473C435.256 231.55 437.885 230.362 440.587 230.201ZM210.73 289.668C208.108 290.076 205.5 290.565 202.913 291.148C201.094 291.559 198.928 292.395 198.692 294.245C198.223 297.934 197.968 301.651 197.929 305.369C217.716 300.702 238.724 301.33 258.196 307.169C260.265 302.322 262.334 297.474 264.403 292.627C246.981 287.908 228.565 286.893 210.73 289.668ZM283.829 260.591C280.698 258.934 277.052 258.269 273.538 258.713C272.844 258.8 272.065 258.993 271.731 259.607C270.397 262.058 267.48 263.119 264.781 263.833C251.204 267.429 236.867 267.348 222.95 265.451C220.363 265.098 217.741 264.671 215.39 263.534C213.039 262.397 210.961 260.442 210.264 257.925C208.411 257.897 207.299 259.921 206.64 261.653C204.649 266.89 202.929 272.231 201.487 277.645C224.051 272.534 247.897 273.195 270.143 279.548C272.265 276.957 273.841 273.918 274.737 270.689C275.155 269.182 276.312 268.012 277.425 266.913C279.56 264.806 281.695 262.698 283.829 260.591ZM246.976 336.937C249.156 332.115 251.008 327.144 252.514 322.071C235.143 319.193 217.352 318.855 199.883 321.073C199.142 321.167 198.32 321.312 197.873 321.909C197.479 322.435 197.499 323.152 197.537 323.808C197.723 327.061 197.909 330.315 198.095 333.568C198.145 334.442 198.562 335.623 199.42 335.447C215.097 332.214 231.532 332.729 246.976 336.937ZM463.668 187.629C464.166 186.394 464.643 185.096 464.535 183.769C464.427 182.443 463.562 181.084 462.255 180.838C461.439 180.684 460.598 180.98 459.892 181.416C458.161 182.484 457.076 184.317 456.059 186.078C451.455 194.055 446.852 202.031 442.248 210.007C441.651 211.041 439.926 210.721 439.272 209.723C438.617 208.724 438.704 207.432 438.797 206.242C439.571 196.265 438.99 186.185 437.076 176.364C436.957 175.755 436.824 175.124 436.457 174.623C435.394 173.169 432.913 173.674 431.843 175.122C430.772 176.57 430.71 178.504 430.695 180.305C430.589 194.023 430.718 208.228 425.177 220.777C430.806 218.592 437.142 218.277 442.96 219.891C443.791 220.122 444.653 220.394 445.501 220.234C446.348 220.074 447.154 219.301 447.006 218.451C446.451 215.265 448.738 212.369 450.748 209.837C456.091 203.106 460.458 195.6 463.668 187.629ZM270.657 253.31C270.274 251.737 268.864 250.293 267.253 250.438C250.806 251.91 234.265 252.329 217.765 251.691C216.788 251.653 215.759 251.622 214.893 252.075C214.282 252.394 213.803 252.935 213.479 253.544C212.162 256.016 213.499 259.239 215.744 260.914C217.988 262.588 220.88 263.077 223.658 263.428C235.788 264.959 248.15 264.798 260.191 262.682C262.791 262.226 265.458 261.643 267.61 260.114C269.762 258.586 271.283 255.874 270.657 253.31ZM241.337 354.021C241.432 353.692 241.523 353.319 241.35 353.023C241.165 352.709 240.761 352.615 240.401 352.554C227.326 350.336 213.945 351.426 200.728 352.521C200.355 352.552 199.929 352.612 199.719 352.922C199.556 353.165 199.579 353.483 199.609 353.774C199.992 357.525 200.375 361.278 200.758 365.03C200.831 365.75 201.136 366.684 201.86 366.648C213.351 366.061 224.899 366.57 236.295 368.166C237.018 368.268 237.454 367.404 237.658 366.702C238.884 362.474 240.111 358.248 241.337 354.021ZM233.843 387.78C233.899 387.24 233.932 386.625 233.558 386.232C233.272 385.93 232.829 385.853 232.417 385.796C223.472 384.55 214.381 385.434 205.393 386.32C204.944 386.364 204.423 386.453 204.207 386.849C204.058 387.12 204.105 387.453 204.157 387.759C204.759 391.353 205.362 394.948 205.966 398.543C206.052 399.06 206.326 399.724 206.844 399.647C215.419 398.369 224.543 397.993 232.385 401.688C232.871 397.052 233.357 392.416 233.843 387.78ZM197.878 192.026C201.117 194.25 204.673 196.014 208.405 197.244C206.78 189.75 206.462 181.976 207.469 174.375C207.596 173.414 206.514 172.793 205.62 172.417C200.396 170.215 195.653 166.874 191.82 162.696C192.216 170.626 193.073 178.533 194.386 186.363C194.582 187.538 194.803 188.744 195.438 189.751C196.036 190.698 196.955 191.392 197.878 192.026ZM284.218 200.077C287.697 197.25 290.745 193.915 293.442 190.334C294.897 188.402 296.268 186.366 297.074 184.086C297.885 181.792 298.095 179.335 298.191 176.904C298.444 170.545 297.958 164.155 296.748 157.906C293.954 161.701 291.161 165.497 288.367 169.292C287.938 169.875 287.499 170.479 287.334 171.183C287.202 171.747 287.255 172.337 287.303 172.914C288.049 182.054 286.994 191.337 284.218 200.077ZM230.245 432.186C230.857 432.309 231.137 431.455 231.152 430.83C231.241 427.101 231.329 423.371 231.418 419.641C231.426 419.306 231.431 418.955 231.286 418.652C231.018 418.093 230.344 417.879 229.744 417.723C226.349 416.84 222.905 415.952 219.397 415.994C216.483 416.029 213.598 416.708 210.686 416.637C210.355 416.629 209.925 416.683 209.856 417.006C209.831 417.118 209.863 417.233 209.895 417.344C211.18 421.806 212.872 426.15 214.943 430.305C215.215 430.851 215.539 431.435 216.106 431.656C216.506 431.812 216.953 431.754 217.379 431.701C221.657 431.165 226.02 431.33 230.245 432.186ZM300.127 152.126C299.461 153.156 298.871 154.281 298.762 155.503C298.695 156.252 298.812 157.005 298.929 157.748C299.378 160.612 299.827 163.477 300.276 166.342C300.303 166.508 300.333 166.685 300.444 166.811C300.705 167.109 301.188 166.951 301.54 166.771C302.963 166.049 304.402 165.316 305.603 164.266C306.565 163.424 307.35 162.399 308.09 161.354C309.634 159.172 311.052 156.737 311.153 154.065C311.253 151.393 309.613 148.488 306.983 148.006C304.198 147.495 301.665 149.748 300.127 152.126ZM179.107 157.798C178.04 158.733 177.653 160.219 177.476 161.627C177.313 162.916 177.285 164.259 177.733 165.479C178.35 167.162 179.816 168.423 181.438 169.186C183.061 169.949 184.847 170.276 186.611 170.596C187.482 170.754 188.352 170.912 189.223 171.07C189.439 171.108 189.694 171.136 189.847 170.979C189.973 170.848 189.973 170.644 189.965 170.462C189.821 167.238 189.677 164.013 189.533 160.789C189.472 159.419 188.493 158.212 187.286 157.562C186.078 156.911 184.673 156.736 183.303 156.702C181.822 156.664 180.221 156.822 179.107 157.798ZM458.961 212.975C458.32 212.275 457.375 211.954 456.466 211.682C455.503 211.394 454.463 211.13 453.508 211.445C452.424 211.801 451.707 212.815 451.134 213.803C450.269 215.296 449.551 216.875 448.995 218.509C448.798 219.088 448.619 219.696 448.701 220.302C448.784 220.908 449.197 221.51 449.797 221.622C452.25 222.082 454.392 223.93 455.207 226.289C456.346 223.901 457.485 221.515 458.624 219.127C459.095 218.14 459.572 217.135 459.735 216.053C459.896 214.971 459.699 213.781 458.961 212.975ZM467.497 217.973C466.33 216.876 464.389 216.953 463.041 217.817C461.692 218.68 460.852 220.156 460.309 221.662C459.691 223.378 459.39 225.208 459.427 227.031C459.435 227.466 459.467 227.916 459.668 228.303C460.152 229.235 461.43 229.443 462.449 229.186C464.675 228.624 466.158 226.556 467.258 224.542C467.825 223.504 468.352 222.414 468.5 221.241C468.647 220.067 468.358 218.783 467.497 217.973ZM232.765 450.782C232.217 447.616 231.67 444.451 231.122 441.286C231.059 440.918 230.973 440.513 230.673 440.29C230.476 440.144 230.222 440.105 229.978 440.073C227.157 439.707 224.291 439.688 221.465 440.019C224.801 444.025 228.6 447.645 232.765 450.782Z" fill="#00160A"/>
<path d="M70.7499 142.188C67.9335 147.587 66.4724 153.577 66.508 159.637C64.169 155.03 61.3683 150.266 55.9681 148.87C51.4452 147.66 46.2071 150.145 45.5948 155.031C44.8621 160.901 50.1482 166.026 54.1132 169.644C58.7583 173.917 64.127 177.349 69.6301 180.443C72.4478 182.02 75.2957 183.478 78.1549 184.968C77.5223 186.969 76.9183 189.25 78.1255 191.052C79.0731 192.442 80.9855 193.047 82.3772 191.818C83.7688 190.588 83.7322 188.469 82.8176 187.066C82.0164 185.876 80.7653 185.066 79.4404 184.355C79.5121 184.149 79.5631 183.985 79.6348 183.779C80.1534 182.071 80.7165 180.384 81.3234 178.718C82.4941 175.364 83.7846 172.038 84.9431 168.652C87.0047 162.696 88.7349 156.536 89.0104 150.218C89.2098 145.41 88.986 138.226 84.3391 135.362C78.7173 131.842 73.1587 137.588 70.7499 142.188ZM82.129 188.004C82.5637 188.894 82.6218 190.065 81.875 190.844C80.6161 192.133 79.0373 190.828 78.67 189.516C78.3027 188.204 78.6643 186.771 79.0925 185.422C80.3184 186.06 81.5458 186.806 82.129 188.004ZM87.9437 146.883C88.0893 150.012 87.8633 153.13 87.2873 156.196C86.1812 162.454 83.9775 168.426 81.7739 174.397C80.6319 177.523 79.4684 180.694 78.4907 183.87C77.7296 183.496 76.9914 183.186 76.3071 182.821C73.6028 181.455 70.9525 180.034 68.3112 178.538C62.9171 175.44 57.6993 171.917 53.2373 167.54C50.6605 165.008 47.8026 162.108 46.7103 158.602C45.5599 154.935 46.9919 151.088 50.8476 149.758C58.1368 147.249 63.4402 154.645 66.4874 160.187C66.5085 160.65 66.5296 161.112 66.5507 161.574C66.5974 162.208 67.5325 162.048 67.5089 161.478C67.3202 155.402 68.3776 149.414 71.0269 143.858C72.341 141.103 74.0425 138.098 76.8121 136.511C79.8837 134.743 83.5593 135.14 85.621 138.077C87.3791 140.582 87.8124 143.894 87.9437 146.883Z" fill="#FFB61D"/>
<path d="M445.278 67.4523C439.65 69.7778 434.68 73.4276 430.812 78.0925C431.982 73.0596 432.899 67.6099 429.66 63.0691C426.972 59.2353 421.362 57.7718 417.753 61.1211C413.418 65.1467 414.174 72.4707 414.885 77.7905C415.697 84.0499 417.603 90.13 419.83 96.038C420.975 99.0572 422.219 102.004 423.453 104.983C421.681 106.11 419.753 107.469 419.519 109.625C419.352 111.299 420.427 112.991 422.283 112.944C424.14 112.897 425.475 111.25 425.675 109.588C425.827 108.161 425.389 106.736 424.831 105.34C425.018 105.228 425.162 105.136 425.35 105.023C426.845 104.049 428.361 103.119 429.897 102.232C432.949 100.415 436.075 98.6971 439.139 96.8479C444.548 93.6113 449.832 90.0038 454.105 85.3411C457.348 81.786 461.794 76.1384 460.075 70.9584C458.032 64.6478 450.08 65.4767 445.278 67.4523ZM424.545 109.864C424.305 110.824 423.597 111.76 422.525 111.876C420.732 112.055 420.362 110.04 420.923 108.799C421.486 107.557 422.684 106.692 423.879 105.934C424.407 107.21 424.868 108.571 424.545 109.864ZM455.431 82.1009C453.532 84.5908 451.354 86.8346 448.942 88.8123C444.072 92.8961 438.546 96.0538 433.02 99.2115C430.135 100.873 427.206 102.554 424.415 104.358C424.072 103.582 423.706 102.871 423.417 102.151C422.223 99.3664 421.106 96.5745 420.044 93.7303C417.904 87.8898 416.171 81.8369 415.566 75.6162C415.22 72.0202 414.895 67.9615 416.312 64.5732C417.788 61.0254 421.357 58.9989 425.166 60.4577C432.363 63.2215 431.671 72.2964 430.443 78.5006C430.162 78.8679 429.881 79.2359 429.6 79.6032C429.229 80.1189 430.048 80.5974 430.396 80.1462C434.157 75.3702 438.816 71.4626 444.417 68.91C447.194 67.6438 450.429 66.4355 453.571 67.0005C457.06 67.6199 459.621 70.2869 459.313 73.8616C459.049 76.911 457.251 79.7273 455.431 82.1009Z" fill="#FFB61D"/>
</svg>
